<svg width="27" height="30" viewBox="0 0 27 30" fill="none" xmlns="http://www.w3.org/2000/svg">
<path d="M1.94873 6.89777L5.89745 1.63281H21.6923L25.641 6.89777M1.94873 6.89777V25.3251C1.94873 26.0233 2.22608 26.6929 2.71977 27.1866C3.21345 27.6802 3.88303 27.9576 4.58121 27.9576H23.0086C23.7067 27.9576 24.3763 27.6802 24.87 27.1866C25.3637 26.6929 25.641 26.0233 25.641 25.3251V6.89777M1.94873 6.89777H25.641M19.0598 12.1627C19.0598 13.5591 18.5051 14.8982 17.5178 15.8856C16.5304 16.873 15.1912 17.4277 13.7949 17.4277C12.3985 17.4277 11.0594 16.873 10.072 15.8856C9.08463 14.8982 8.52993 13.5591 8.52993 12.1627" stroke="black" stroke-width="2.5"/>
</svg>
