<svg width="28" height="13" viewBox="0 0 28 13" fill="none" xmlns="http://www.w3.org/2000/svg">
<path d="M14.3313 6.56725C12.5203 4.86063 10.552 2.14094 7.97335 1.62736C6.99557 1.43262 5.982 1.53224 5.06085 1.91362C4.13969 2.29499 3.35234 2.941 2.79837 3.76992C2.24441 4.59883 1.94873 5.57342 1.94873 6.5704C1.94873 7.56739 2.24441 8.54198 2.79837 9.37089C3.35234 10.1998 4.13969 10.8458 5.06085 11.2272C5.982 11.6086 6.99557 11.7082 7.97335 11.5134C10.5539 10.9995 12.5208 8.27645 14.3313 6.56725ZM14.3313 6.56725C16.075 4.82669 17.9129 2.1382 20.4778 1.62736C21.4556 1.43262 22.4691 1.53224 23.3903 1.91362C24.3115 2.29499 25.0988 2.941 25.6528 3.76992C26.2067 4.59883 26.5024 5.57342 26.5024 6.5704C26.5024 7.56739 26.2067 8.54198 25.6528 9.37089C25.0988 10.1998 24.3115 10.8458 23.3903 11.2272C22.4691 11.6086 21.4556 11.7082 20.4778 11.5134C17.9109 11.0022 16.0745 8.31041 14.3313 6.56725Z" stroke="black" stroke-width="2.5"/>
</svg>
